PathFileType	4	(X/Y/Z)	C:/Users/opensim2020/Desktop/walking_exp_matlab/subject03_walking06_straight_04.trc																																																																																																																																		
DataRate	CameraRate	NumFrames	NumMarkers	Units	OrigDataRate	OrigDataStartFrame	OrigNumFrames																																																																																																																														
100	100	7	44	mm	100	2972	278																																																																																																																														
Frame#	Time	LFHD			RFHD			LBHD			RBHD			C7			T10			CLAV			STRN			RBAK			LSHO			LUPA			LELB			LFRM			LWRA			LWRB			LFIN			RSHO			RUPA			RELB			RFRM			RWRA			RWRB			RFIN			LASI			RASI			LPSI			RPSI			LTHI			LKNE			LTIB			LANK			LHEE			LTOE			RTHI			RKNE			RTIB			RANK			RHEE			RTOE			*39			*40			*41			*42			*43		
		X1	Y1	Z1	X2	Y2	Z2	X3	Y3	Z3	X4	Y4	Z4	X5	Y5	Z5	X6	Y6	Z6	X7	Y7	Z7	X8	Y8	Z8	X9	Y9	Z9	X10	Y10	Z10	X11	Y11	Z11	X12	Y12	Z12	X13	Y13	Z13	X14	Y14	Z14	X15	Y15	Z15	X16	Y16	Z16	X17	Y17	Z17	X18	Y18	Z18	X19	Y19	Z19	X20	Y20	Z20	X21	Y21	Z21	X22	Y22	Z22	X23	Y23	Z23	X24	Y24	Z24	X25	Y25	Z25	X26	Y26	Z26	X27	Y27	Z27	X28	Y28	Z28	X29	Y29	Z29	X30	Y30	Z30	X31	Y31	Z31	X32	Y32	Z32	X33	Y33	Z33	X34	Y34	Z34	X35	Y35	Z35	X36	Y36	Z36	X37	Y37	Z37	X38	Y38	Z38	X39	Y39	Z39	X40	Y40	Z40	X41	Y41	Z41	X42	Y42	Z42	X43	Y43	Z43	X44	Y44	Z44
																																																																																																																																					
244	2.43	912.4563	1615.4635	973.6814	917.71869	1624.48279	1106.50208	786.06934	1566.36572	987.07434	797.29803	1575.58777	1117.03516	763.04962	1411.50439	1042.76196	740.45459	1095.60828	1032.3457	886.31354	1337.58032	1042.95691	935.75372	1175.18982	1030.4386	713.04358	1228.34363	1128.3429	845.95673	1378.91138	888.80597	866.82416	1186.11511	815.44086	896.12421	1066.05737	806.5575	962.17114	955.20728	816.96423	1021.27716	856.13776	858.09247	999.82568	847.32477	807.11658	1044.46033	777.4184	825.7326	835.224	1352.8147	1202.99036	823.23627	1128.51624	1269.74915	831.61316	1015.79156	1283.11853	841.24359	878.84955	1284.13135	870.07391	782.54919	1250.78516	834.04352	778.52448	1291.81641	849.65912	704.75287	1280.07068	908.68451	932.35834	912.8598	916.42712	942.42267	1151.14026	748.40143	949.93329	967.8075	753.49396	966.91394	1115.84595	870.97473	627.57495	856.86566	897.43335	449.18738	871.13959	742.81525	327.45779	889.29541	593.9707	190.595	945.23358	549.06555	198.50334	992.0968	654.73663	53.80488	949.29578	878.25549	647.17065	1191.35632	912.76349	469.18826	1152.44067	890.18274	280.92413	1150.64648	895.90973	65.41529	1096.04358	855.17804	33.7893	1043.34424	1040.38538	31.24117	1082.98499	830.6626	1675.76294	1026.41199	NaN	NaN	NaN	NaN	NaN	NaN	NaN	NaN	NaN	NaN	NaN	NaN
245	2.44	920.53607	1615.9884	973.34045	926.33655	1625.00342	1106.0509	794.34528	1566.60168	987.31708	806.07733	1575.91431	1117.2334	771.68353	1412.12366	1043.00085	748.46613	1096.12109	1033.13501	894.65302	1337.93933	1042.76843	943.73889	1175.38574	1030.36987	721.3457	1229.23376	1129.33984	853.79907	1378.80798	888.63208	873.93085	1185.59277	815.57642	903.3714	1065.34656	806.72028	967.31189	953.06482	816.43475	1024.76282	852.82526	856.80518	1002.38922	844.37506	806.2121	1046.20898	773.8847	824.05847	844.53168	1353.08704	1203.08472	835.02667	1128.76746	1270.25208	844.85767	1016.15717	1283.77515	856.34576	879.35095	1284.94409	885.95569	783.49109	1251.12708	850.56226	778.85724	1292.57971	867.62579	705.63165	1280.97266	916.50647	932.84186	913.29987	924.26184	942.89423	1151.86938	755.98328	949.93921	968.77954	761.27838	967.388	1116.59326	883.36865	629.05316	856.71497	914.69202	451.48367	869.65442	761.58575	328.56476	887.96167	613.91412	190.16277	943.72906	568.53882	196.68106	990.69537	677.73413	54.90889	946.39178	884.15814	647.67865	1191.6095	916.93115	469.38281	1152.62488	892.42645	281.11026	1150.68921	895.3905	66.17223	1096.54175	855.18341	33.91012	1043.15393	1040.41956	31.21539	1082.94092	838.87921	1675.88843	1026.48022	NaN	NaN	NaN	NaN	NaN	NaN	NaN	NaN	NaN	NaN	NaN	NaN
246	2.45	928.51855	1616.62793	972.88995	934.94916	1625.44714	1105.52588	802.61176	1566.91797	987.40948	814.86993	1576.2262	1117.31152	780.12372	1412.71387	1043.25195	756.24377	1096.70667	1033.79395	902.92432	1338.27905	1042.61243	951.6839	1175.57092	1030.26917	729.48767	1230.22546	1130.22742	861.59113	1378.74255	888.29053	880.9519	1185.20203	815.78583	910.02734	1064.71191	806.91003	972.20239	951.14337	815.91333	1027.729	849.59448	855.46417	1005.021	841.71289	805.02979	1047.73804	770.60046	822.23004	853.6637	1353.54492	1203.0575	846.87738	1129.16785	1270.57813	858.27899	1016.70148	1284.40503	871.56812	880.03729	1285.46484	901.99176	784.7486	1251.36414	867.33594	779.54297	1293.35596	885.85376	706.85413	1281.96484	924.28918	933.65656	913.98022	931.85583	943.44684	1152.61121	763.78534	950.1626	969.82227	768.9903	967.8476	1117.30176	895.96783	630.52747	856.68042	931.75177	454.03918	868.43732	780.39441	329.24295	886.81537	634.65942	188.51041	941.96033	588.50482	193.56178	988.92645	702.10742	55.27758	944.15076	890.61444	648.19885	1191.96851	921.27887	469.4274	1152.58875	894.57019	281.30566	1150.69031	895.35284	66.41095	1096.40247	855.26434	34.07545	1042.94556	1040.48132	31.12706	1082.9248	847.04285	1676.28198	1026.33862	NaN	NaN	NaN	NaN	NaN	NaN	NaN	NaN	NaN	NaN	NaN	NaN
247	2.46	936.70197	1616.79333	972.46387	943.60059	1625.88879	1105.00256	810.76331	1567.25464	987.58105	823.59839	1576.65515	1117.36682	788.49164	1413.32642	1043.36694	763.92169	1097.46289	1034.68787	911.0639	1338.64258	1042.38013	959.53674	1175.88293	1030.23523	737.63458	1231.14734	1130.81714	869.15002	1378.8125	888.0426	887.93555	1184.98706	816.07288	916.67041	1064.33838	807.17755	976.82062	949.44147	815.3183	1030.50085	846.62958	853.96051	1007.45081	839.54498	803.43152	1049.11902	767.6543	820.18134	862.49884	1354.15881	1202.94238	858.75824	1129.84753	1270.82166	871.98517	1017.59613	1284.57483	887.01355	881.09821	1285.95667	918.14014	786.27362	1251.53662	884.19464	780.58429	1294.07166	904.31506	708.44904	1282.95386	932.1792	934.65253	914.82172	939.34039	943.98755	1153.39063	771.34998	950.79803	970.29376	776.51721	968.3045	1117.91931	908.67114	632.05103	856.61627	948.32996	456.52835	867.64911	799.38043	329.38968	885.72449	655.8338	185.80402	940.27478	609.06909	189.11177	986.89484	727.7536	54.88079	942.53632	897.3269	648.42145	1192.06287	925.38818	469.44116	1152.58179	896.64404	281.47235	1150.55518	896.17432	65.86145	1095.4823	855.3338	34.28041	1042.78894	1040.54089	31.0803	1082.86121	855.23517	1676.90979	1026.38586	NaN	NaN	NaN	NaN	NaN	NaN	NaN	NaN	NaN	NaN	NaN	NaN
248	2.47	944.88629	1617.36755	971.73877	952.30762	1626.26062	1104.46106	818.80536	1567.68274	987.68958	832.23798	1577.08826	1117.26672	796.63934	1413.91309	1043.40515	771.57562	1098.03235	1035.27905	919.1369	1339.05005	1042.10559	967.19769	1176.19128	1030.28711	745.58582	1232.09119	1131.33203	876.59656	1378.98914	887.83508	894.83655	1184.87646	816.27814	923.16803	1064.24939	807.47437	981.21899	948.05023	814.63104	1032.90918	843.94763	852.31531	1009.65088	837.60309	801.73901	1050.38391	765.05621	817.88843	871.17181	1354.92029	1202.82202	870.56207	1130.76379	1271.01563	885.73138	1018.75531	1284.6958	902.60461	882.49353	1286.3208	934.03003	787.81152	1251.32458	901.48615	782.07898	1294.9325	922.88403	710.43915	1283.93958	940.15375	935.86029	915.77728	946.70197	944.53912	1154.1814	779.14484	951.36993	970.69257	784.08221	968.6712	1118.3877	921.2785	633.50482	856.54767	964.30652	458.83035	867.05237	818.60541	328.85577	884.64471	677.72742	181.99246	938.59857	630.25476	183.38237	984.70483	754.79828	54.24548	941.29449	904.49237	648.51263	1191.53296	929.38354	469.38531	1152.58508	898.80823	281.6481	1150.51477	895.3938	66.93664	1096.0105	855.63214	34.59977	1042.39233	1040.62329	30.99833	1082.80579	863.45306	1677.54626	1026.57532	NaN	NaN	NaN	NaN	NaN	NaN	NaN	NaN	NaN	NaN	NaN	NaN
249	2.48	953.08398	1617.74646	971.05853	960.80493	1626.61804	1103.71252	827.04871	1568.07983	987.46808	840.84711	1577.56873	1117.11047	804.67157	1414.44519	1043.35083	779.06213	1098.67773	1035.87842	927.03668	1339.44495	1041.85681	974.73438	1176.48828	1030.45007	753.5575	1233.08533	1131.82959	884.0188	1379.3158	887.56879	901.41962	1184.83289	816.53986	929.18158	1064.05066	807.6319	985.29578	946.82452	813.81976	1034.97058	841.4754	850.56329	1011.62671	835.92749	799.90039	1051.45996	762.81897	815.46191	879.77063	1355.91785	1202.81543	882.22339	1131.89038	1271.17041	899.49866	1020.22028	1284.63391	918.23022	884.22119	1286.60181	950.58905	790.11328	1251.60291	918.68982	783.89929	1295.64148	941.474	712.76453	1284.89099	947.98248	936.92975	916.74207	953.96832	945.01721	1154.97388	786.93903	951.97345	971.0658	791.6485	968.97632	1118.73413	933.85468	635.02655	856.52545	980.24182	461.2641	866.84454	838.05353	327.59146	883.60382	700.28851	177.19368	936.89154	652.07898	176.45477	982.48712	783.11584	53.41587	940.17657	911.91479	647.72766	1191.51819	933.34308	469.36081	1152.61646	901.04169	281.83893	1150.42493	895.74408	67.0965	1095.8324	855.47357	34.88036	1042.43445	1040.6925	30.89119	1082.78638	871.24683	1677.65808	1027.43469	NaN	NaN	NaN	NaN	NaN	NaN	NaN	NaN	NaN	NaN	NaN	NaN
250	2.49	961.08344	1617.68835	970.48993	969.50232	1626.91687	1102.9801	835.1944	1568.50818	987.16772	849.45532	1578.10889	1116.84436	812.49365	1414.92468	1043.20117	786.53821	1099.28101	1036.43445	934.86737	1339.81274	1041.5769	982.16638	1176.75391	1030.70288	761.41138	1234.03149	1132.30896	891.28827	1379.62634	887.45898	907.99866	1184.91089	816.62115	934.9671	1064.01294	807.69446	989.16595	945.74567	812.84857	1036.87146	839.20642	848.65527	1013.45959	834.52136	797.97546	1052.38733	760.84216	812.83832	888.17804	1357.01624	1202.60571	893.74274	1133.19031	1271.31311	913.11035	1021.80316	1284.61389	933.85864	886.19958	1286.88379	966.87317	792.43213	1251.59167	936.03058	786.02246	1296.35535	960.13824	715.40332	1285.85449	955.99695	938.05817	917.68365	961.19171	945.3551	1155.7688	794.67706	952.56659	971.31256	799.13092	969.21741	1119.03027	946.36365	636.66968	856.45294	995.90338	463.73953	866.94806	857.54187	325.74344	882.56036	723.4455	171.59389	935.15576	674.55701	168.46463	980.3158	812.29541	52.24988	939.26062	918.05847	647.83655	1191.53406	937.34772	469.32947	1152.62598	903.29083	282.02191	1150.33569	896.96033	66.38071	1094.75061	855.53357	35.19713	1042.2533	1040.7616	30.84454	1082.75537	879.29529	1677.97766	1027.68054	NaN	NaN	NaN	NaN	NaN	NaN	NaN	NaN	NaN	NaN	NaN	NaN
